nColumns=19
nRows=57
DataType=double
version=3
OpenSimVersion=4.1
endheader
time	ground_force_calcn_r_vx	ground_force_calcn_r_vy	ground_force_calcn_r_vz	ground_force_calcn_r_px	ground_force_calcn_r_py	ground_force_calcn_r_pz	ground_force_calcn_r_mx	ground_force_calcn_r_my	ground_force_calcn_r_mz	ground_force_calcn_l_vx	ground_force_calcn_l_vy	ground_force_calcn_l_vz	ground_force_calcn_l_px	ground_force_calcn_l_py	ground_force_calcn_l_pz	ground_force_calcn_l_mx	ground_force_calcn_l_my	ground_force_calcn_l_mz
0.01	-1.75569	20.1519	2.04322	0.0454874	0	-0.177133	-0.028023	0.321649	0.0326124	0	0	0	0	0	0	0	0	0
0.02	-5.64947	39.824	2.19274	0.0723395	0	-0.178372	-0.0398757	0.28109	0.015477	0	0	0	0	0	0	0	0	0
0.03	-10.7598	64.9657	2.29688	0.0875615	0	-0.178818	-0.0457313	0.276117	0.00976219	0	0	0	0	0	0	0	0	0
0.04	-17.2241	96.0032	2.32771	0.0967539	0	-0.178922	-0.0508769	0.283575	0.00687563	0	0	0	0	0	0	0	0	0
0.05	-25.1367	133.096	2.2508	0.103295	0	-0.178894	-0.0561037	0.297063	0.00502365	0	0	0	0	0	0	0	0	0
0.06	-34.523	176.015	2.02509	0.108489	0	-0.178801	-0.0616099	0.314117	0.00361397	0	0	0	0	0	0	0	0	0
0.07	-45.3079	224.011	1.6038	0.112963	0	-0.178671	-0.0674607	0.333538	0.00238796	0	0	0	0	0	0	0	0	0
0.08	-57.2547	275.836	0.939874	0.11706	0	-0.178514	-0.0736533	0.35484	0.00120907	0	0	0	0	0	0	0	0	0
0.09	-69.9237	329.93	-0.0142009	0.12096	0	-0.178332	-0.0801404	0.378136	-1.62758e-05	0	0	0	0	0	0	0	0	0
0.1	-82.7336	384.508	-1.31011	0.124747	0	-0.178117	-0.0867119	0.402998	-0.0013731	0	0	0	0	0	0	0	0	0
0.11	-95.0483	437.602	-3.00207	0.128457	0	-0.177858	-0.0927254	0.426908	-0.00292871	0	0	0	0	0	0	0	0	0
0.12	-106.233	487.211	-5.1436	0.132095	0	-0.177542	-0.0971702	0.445645	-0.00470478	0	0	0	0	0	0	0	0	0
0.13	-115.713	531.554	-7.76972	0.135656	0	-0.177159	-0.0990782	0.45514	-0.00665277	0	0	0	0	0	0	0	0	0
0.14	-123.056	569.284	-10.8593	0.139133	0	-0.176707	-0.0981241	0.453942	-0.00865909	0	0	0	0	0	0	0	0	0
0.15	-128.033	599.613	-14.3105	0.142535	0	-0.176194	-0.0949694	0.444766	-0.0106149	0	0	0	0	0	0	0	0	0
0.16	-130.603	622.307	-17.9463	0.145873	0	-0.175634	-0.0908821	0.433043	-0.0124882	0	0	0	0	0	0	0	0	0
0.17	-130.862	637.548	-21.5387	0.149165	0	-0.175047	-0.0872161	0.424908	-0.0143549	0	0	0	0	0	0	0	0	0
0.18	-129.003	645.778	-24.8473	0.152426	0	-0.174455	-0.0849302	0.425153	-0.0163584	0	0	0	0	0	0	0	0	0
0.19	-125.289	647.605	-27.6677	0.155673	0	-0.173873	-0.0841633	0.43503	-0.0185858	0	0	0	0	0	0	0	0	0
0.2	-120.034	643.73	-29.8603	0.158927	0	-0.173312	-0.0842748	0.451957	-0.0209647	0	0	0	0	0	0	0	0	0
0.21	-113.574	634.897	-31.3585	0.162209	0	-0.172775	-0.0842029	0.470708	-0.0232489	0	0	0	0	0	0	0	0	0
0.22	-106.246	621.877	-32.1665	0.165543	0	-0.172263	-0.0827876	0.484573	-0.0250645	0	0	0	0	0	0	0	0	0
0.23	-98.3618	605.448	-32.346	0.168952	0	-0.171768	-0.0790948	0.486854	-0.0260101	0	0	0	0	0	0	0	0	0
0.24	-90.1946	586.395	-31.9973	0.172457	0	-0.17128	-0.0726035	0.472027	-0.0257567	0	0	0	0	0	0	0	0	0
0.25	-81.968	565.508	-31.2428	0.176076	0	-0.17079	-0.0632431	0.436322	-0.0241057	0	0	0	0	0	0	0	0	0
0.26	-73.8602	543.573	-30.2096	0.179825	0	-0.170288	-0.0513571	0.377962	-0.0210056	0	0	0	0	0	0	0	0	0
0.27	-66.0108	521.357	-29.0151	0.183714	0	-0.169767	-0.037606	0.297015	-0.0165298	0	0	0	0	0	0	0	0	0
0.28	-58.5262	499.584	-27.7573	0.187752	0	-0.169227	-0.0228512	0.19506	-0.0108377	0	0	0	0	0	0	0	0	0
0.29	-51.4813	478.914	-26.5105	0.191932	0	-0.168673	-0.00800376	0.0744565	-0.00412158	0	0	0	0	0	0	0	0	0
0.3	-44.9203	459.926	-25.3268	0.196242	0	-0.168114	0.0060881	-0.0623344	0.00343256	0	0	0	0	0	0	0	0	0
0.31	-38.856	443.108	-24.2415	0.200656	0	-0.167567	0.0186783	-0.213005	0.011653	0	0	0	0	0	0	0	0	0
0.32	-33.2705	428.846	-23.2803	0.205134	0	-0.167049	0.0291261	-0.375427	0.0203804	0	0	0	0	0	0	0	0	0
0.33	-28.1185	417.43	-22.4616	0.209623	0	-0.166582	0.0368963	-0.547741	0.0294735	0	0	0	0	0	0	0	0	0
0.34	-23.3337	409.046	-21.7996	0.214059	0	-0.166183	0.0415365	-0.728145	0.0388056	0	0	0	0	0	0	0	0	0
0.35	-18.8351	403.789	-21.306	0.218384	0	-0.165868	0.0426611	-0.914573	0.0482575	0	0	0	0	0	0	0	0	0
0.36	-14.5338	401.664	-20.99	0.22254	0	-0.165648	0.039961	-1.10439	0.0577127	0	0	0	0	0	0	0	0	0
0.37	-10.3402	402.597	-20.8567	0.226489	0	-0.165529	0.033243	-1.29433	0.0670531	0	0	0	0	0	0	0	0	0
0.38	-6.16702	406.437	-20.9044	0.230205	0	-0.165508	0.0224667	-1.48067	0.0761554	0	0	0	0	0	0	0	0	0
0.39	-1.93151	412.971	-21.1251	0.233688	0	-0.165579	0.0077614	-1.65945	0.0848874	0	0	0	0	0	0	0	0	0
0.4	2.44291	421.929	-21.506	0.23695	0	-0.165733	-0.0105761	-1.82667	0.0931063	0	0	0	0	0	0	0	0	0
0.41	7.0238	432.997	-22.0294	0.24002	0	-0.165958	-0.0320901	-1.97826	0.100647	0	0	0	0	0	0	0	0	0
0.42	11.8661	445.828	-22.6734	0.242934	0	-0.166239	-0.0561661	-2.11025	0.10732	0	0	0	0	0	0	0	0	0
0.43	17.0096	460.054	-23.4123	0.245727	0	-0.166562	-0.0820366	-2.21881	0.112916	0	0	0	0	0	0	0	0	0
0.44	22.48	475.288	-24.2189	0.248433	0	-0.166914	-0.1088	-2.30033	0.117216	0	0	0	0	0	0	0	0	0
0.45	28.2912	491.125	-25.0639	0.251076	0	-0.167283	-0.135447	-2.35132	0.119997	0	0	0	0	0	0	0	0	0
0.46	34.4446	507.134	-25.9157	0.253672	0	-0.167654	-0.16089	-2.36881	0.121052	0	0	0	0	0	0	0	0	0
0.47	40.9273	522.844	-26.7384	0.256229	0	-0.168017	-0.184003	-2.35063	0.120212	0	0	0	0	0	0	0	0	0
0.48	47.7075	537.741	-27.4889	0.258754	0	-0.168365	-0.203697	-2.296	0.11737	0	0	0	0	0	0	0	0	0
0.49	54.7302	551.259	-28.1156	0.261245	0	-0.168693	-0.219021	-2.20604	0.112514	0	0	0	0	0	0	0	0	0
0.5	61.9128	562.787	-28.5588	0.263702	0	-0.168998	-0.229277	-2.08412	0.105759	0	0	0	0	0	0	0	0	0
0.51	69.1435	571.685	-28.7566	0.266123	0	-0.169282	-0.234107	-1.93562	0.0973644	0	0	0	0	0	0	0	0	0
0.52	76.28	577.306	-28.6531	0.268506	0	-0.169544	-0.233494	-1.76714	0.0877075	0	0	0	0	0	0	0	0	0
0.53	83.152	579.01	-28.2048	0.270849	0	-0.169787	-0.227745	-1.58585	0.0772499	-0.916155	27.5246	-4.48553	0.731929	0	-0.23411	-0.00992743	0.298256	-0.0486051
0.54	89.5613	576.199	-27.3815	0.273151	0	-0.170012	-0.217486	-1.39921	0.0664919	-3.63813	47.773	-4.96049	0.764942	0	-0.251245	-0.028695	0.3768	-0.0391248
0.55	95.2821	568.347	-26.1679	0.27541	0	-0.170221	-0.203632	-1.21464	0.0559247	-7.34511	72.8734	-5.37612	0.782149	0	-0.25942	-0.0419299	0.416001	-0.0306898
0.56	100.067	555.044	-24.5651	0.27763	0	-0.170414	-0.18732	-1.03901	0.0459845	-12.1777	103.002	-5.67577	0.793155	0	-0.264151	-0.0521036	0.440706	-0.0242843
0.57	103.66	536.043	-22.5949	0.279819	0	-0.170594	-0.169768	-0.877898	0.0370046	-18.2517	138.032	-5.78752	0.801163	0	-0.26724	-0.0606526	0.458699	-0.0192327
